<svg width="156" height="42" viewBox="0 0 156 42" fill="none" xmlns="http://www.w3.org/2000/svg">
<path d="M66.7727 3.19655H69.4605L64.9021 16H62.632L59.6718 7.51885L56.6752 16H54.4051L49.8649 3.19655H52.7343L55.6582 12.0409L58.7637 3.19655H60.7433L63.7398 12.1317L66.7727 3.19655ZM74.0491 16.1453C73.1047 16.1453 72.2754 15.9576 71.5611 15.5823C70.8467 15.1949 70.2958 14.6561 69.9084 13.966C69.521 13.2638 69.3273 12.4405 69.3273 11.4961C69.3273 10.5517 69.521 9.73448 69.9084 9.04437C70.2958 8.34214 70.8467 7.80337 71.5611 7.42804C72.2754 7.05272 73.1047 6.86506 74.0491 6.86506C74.9935 6.86506 75.8228 7.05272 76.5372 7.42804C77.2515 7.80337 77.8024 8.34214 78.1898 9.04437C78.5772 9.73448 78.7709 10.5517 78.7709 11.4961C78.7709 12.4405 78.5772 13.2638 78.1898 13.966C77.8024 14.6561 77.2515 15.1949 76.5372 15.5823C75.8228 15.9576 74.9935 16.1453 74.0491 16.1453ZM74.0491 14.0568C75.3809 14.0568 76.0468 13.2032 76.0468 11.4961C76.0468 10.6365 75.8713 9.99479 75.5201 9.57103C75.1811 9.14728 74.6908 8.9354 74.0491 8.9354C72.7173 8.9354 72.0514 9.78896 72.0514 11.4961C72.0514 13.2032 72.7173 14.0568 74.0491 14.0568ZM86.8142 9.11701L85.2706 9.28046C84.5078 9.3531 83.969 9.57103 83.6542 9.93425C83.3395 10.2854 83.1821 10.7575 83.1821 11.3508V16H80.4398V7.08299H83.0731V8.59034C83.5211 7.56122 84.4473 6.99824 85.8517 6.90138L86.6508 6.8469L86.8142 9.11701ZM87.729 16V3.19655H90.4713V16H87.729ZM101.597 3.19655V16H98.8725V14.6743C98.6062 15.1343 98.2248 15.4975 97.7284 15.7639C97.2441 16.0182 96.6932 16.1453 96.0757 16.1453C95.313 16.1453 94.6289 15.9516 94.0236 15.5641C93.4303 15.1646 92.9642 14.6137 92.6252 13.9115C92.2983 13.1972 92.1348 12.3799 92.1348 11.4598C92.1348 10.5396 92.2983 9.73448 92.6252 9.04437C92.9642 8.34214 93.4303 7.80337 94.0236 7.42804C94.6168 7.05272 95.3009 6.86506 96.0757 6.86506C96.6811 6.86506 97.2259 6.99218 97.7102 7.24644C98.2066 7.50069 98.588 7.85785 98.8544 8.31793V3.19655H101.597ZM96.8748 14.0568C97.5165 14.0568 98.0069 13.8389 98.3459 13.403C98.697 12.955 98.8725 12.3194 98.8725 11.4961C98.8725 10.6728 98.697 10.0432 98.3459 9.60736C98.0069 9.17149 97.5165 8.95356 96.8748 8.95356C96.2331 8.95356 95.7367 9.17149 95.3856 9.60736C95.0345 10.0311 94.859 10.6486 94.859 11.4598C94.859 12.2831 95.0345 12.9248 95.3856 13.3848C95.7367 13.8328 96.2331 14.0568 96.8748 14.0568ZM50.8092 35V22.1965H53.6423V32.6936H59.363V35H50.8092ZM60.8246 35V26.083H63.5668V35H60.8246ZM60.7337 21.797H63.6758V24.3577H60.7337V21.797ZM71.1872 25.8651C71.9621 25.8651 72.6461 26.0527 73.2394 26.428C73.8326 26.8034 74.2927 27.3421 74.6196 28.0444C74.9586 28.7345 75.1281 29.5396 75.1281 30.4598C75.1281 31.3799 74.9586 32.1972 74.6196 32.9115C74.2927 33.6137 73.8266 34.1646 73.2212 34.5641C72.628 34.9516 71.95 35.1453 71.1872 35.1453C70.5697 35.1453 70.0128 35.0182 69.5164 34.7639C69.02 34.4975 68.6386 34.1343 68.3723 33.6743V35H65.6663V22.1965H68.4086V27.2816C68.6749 26.8336 69.0503 26.4886 69.5346 26.2464C70.031 25.9922 70.5818 25.8651 71.1872 25.8651ZM70.3881 33.0568C71.0298 33.0568 71.5262 32.8328 71.8773 32.3848C72.2284 31.9248 72.404 31.2831 72.404 30.4598C72.404 29.6486 72.2284 29.0311 71.8773 28.6074C71.5262 28.1715 71.0298 27.9536 70.3881 27.9536C69.7464 27.9536 69.25 28.1775 68.8989 28.6255C68.5478 29.0614 68.3723 29.6849 68.3723 30.4961C68.3723 31.3194 68.5478 31.955 68.8989 32.403C69.25 32.8389 69.7464 33.0568 70.3881 33.0568ZM83.1785 28.117L81.6348 28.2805C80.8721 28.3531 80.3333 28.571 80.0185 28.9343C79.7037 29.2854 79.5463 29.7575 79.5463 30.3508V35H76.804V26.083H79.4374V27.5903C79.8853 26.5612 80.8115 25.9982 82.216 25.9014L83.0151 25.8469L83.1785 28.117ZM88.0523 25.8651C89.3841 25.8651 90.3648 26.1798 90.9944 26.8094C91.6361 27.439 91.9569 28.4136 91.9569 29.7333V35H89.3599V33.6743C89.1783 34.1343 88.8756 34.4975 88.4519 34.7639C88.0281 35.0182 87.5317 35.1453 86.9627 35.1453C86.3573 35.1453 85.8064 35.0242 85.31 34.7821C84.8257 34.5399 84.4383 34.2009 84.1477 33.7651C83.8692 33.3292 83.73 32.8449 83.73 32.3122C83.73 31.6584 83.8935 31.1438 84.2204 30.7685C84.5594 30.3932 85.0981 30.1208 85.8367 29.9513C86.5752 29.7818 87.5862 29.697 88.8696 29.697H89.3417V29.3701C89.3417 28.8374 89.2267 28.4621 88.9967 28.2441C88.7666 28.0262 88.3671 27.9172 87.7981 27.9172C87.3622 27.9172 86.8779 27.9959 86.3452 28.1533C85.8125 28.3107 85.304 28.5287 84.8197 28.8071L84.0932 26.9729C84.6017 26.6581 85.2253 26.3978 85.9638 26.192C86.7145 25.974 87.4106 25.8651 88.0523 25.8651ZM87.562 33.2566C88.0947 33.2566 88.5245 33.081 88.8514 32.7299C89.1783 32.3667 89.3417 31.9005 89.3417 31.3315V31.0228H89.033C88.0523 31.0228 87.3622 31.1015 86.9627 31.2588C86.5752 31.4162 86.3815 31.7008 86.3815 32.1124C86.3815 32.4393 86.4905 32.7117 86.7084 32.9297C86.9384 33.1476 87.223 33.2566 87.562 33.2566ZM100.382 28.117L98.8381 28.2805C98.0753 28.3531 97.5365 28.571 97.2217 28.9343C96.9069 29.2854 96.7496 29.7575 96.7496 30.3508V35H94.0073V26.083H96.6406V27.5903C97.0886 26.5612 98.0148 25.9982 99.4192 25.9014L100.218 25.8469L100.382 28.117ZM108.021 26.1011H110.709L105.333 38.269H102.555L104.262 34.5097L100.593 26.1011H103.444L105.696 31.7674L108.021 26.1011Z" fill="#282828"/>
<path d="M123.697 3.19655H126.385L121.826 16H119.556L116.596 7.51885L113.599 16H111.329L106.789 3.19655H109.658L112.582 12.0409L115.688 3.19655H117.667L120.664 12.1317L123.697 3.19655ZM127.769 16V7.08299H130.511V16H127.769ZM127.678 2.79701H130.62V5.3577H127.678V2.79701ZM141.637 3.19655V16H138.913V14.6743C138.646 15.1343 138.265 15.4975 137.768 15.7639C137.284 16.0182 136.733 16.1453 136.116 16.1453C135.353 16.1453 134.669 15.9516 134.064 15.5641C133.47 15.1646 133.004 14.6137 132.665 13.9115C132.338 13.1972 132.175 12.3799 132.175 11.4598C132.175 10.5396 132.338 9.73448 132.665 9.04437C133.004 8.34214 133.47 7.80337 134.064 7.42804C134.657 7.05272 135.341 6.86506 136.116 6.86506C136.721 6.86506 137.266 6.99218 137.75 7.24644C138.247 7.50069 138.628 7.85785 138.894 8.31793V3.19655H141.637ZM136.915 14.0568C137.557 14.0568 138.047 13.8389 138.386 13.403C138.737 12.955 138.913 12.3194 138.913 11.4961C138.913 10.6728 138.737 10.0432 138.386 9.60736C138.047 9.17149 137.557 8.95356 136.915 8.95356C136.273 8.95356 135.777 9.17149 135.426 9.60736C135.075 10.0311 134.899 10.6486 134.899 11.4598C134.899 12.2831 135.075 12.9248 135.426 13.3848C135.777 13.8328 136.273 14.0568 136.915 14.0568ZM151.776 12.0591H145.964C146.049 12.7734 146.279 13.294 146.654 13.6209C147.042 13.9357 147.587 14.0931 148.289 14.0931C148.749 14.0931 149.203 14.0205 149.651 13.8752C150.111 13.7178 150.529 13.4998 150.904 13.2214L151.63 15.0556C151.195 15.3946 150.662 15.661 150.032 15.8547C149.415 16.0484 148.791 16.1453 148.162 16.1453C146.66 16.1453 145.474 15.7336 144.602 14.9103C143.742 14.0749 143.313 12.9429 143.313 11.5143C143.313 10.6062 143.5 9.80107 143.876 9.09885C144.251 8.39663 144.772 7.8518 145.438 7.46437C146.103 7.06483 146.86 6.86506 147.708 6.86506C148.955 6.86506 149.941 7.27065 150.668 8.08184C151.406 8.89303 151.776 9.99479 151.776 11.3871V12.0591ZM147.78 8.75379C147.26 8.75379 146.842 8.92329 146.527 9.2623C146.224 9.58919 146.037 10.0674 145.964 10.697H149.469C149.433 10.0553 149.269 9.57103 148.979 9.24414C148.7 8.91724 148.301 8.75379 147.78 8.75379Z" fill="#282828"/>
<path fill-rule="evenodd" clip-rule="evenodd" d="M13.818 3.44299H0V30.5898C0 33.5152 2.35677 35.8867 5.264 35.8867H16.4733C16.633 37.0098 17.5928 37.8731 18.753 37.8731H22.043C23.2032 37.8731 24.1631 37.0098 24.3227 35.8867H35.532C38.4393 35.8867 40.796 33.5152 40.796 30.5898V3.44299H26.978C24.0708 3.44299 21.714 5.81451 21.714 8.73993V31.2519H19.082V8.73993C19.082 5.81451 16.7252 3.44299 13.818 3.44299ZM15.0557 8.36162H4.37101V11.3128H15.0557V8.36162ZM27.1974 8.36162H37.882V11.3128H27.1974V8.36162ZM12.1417 15.2475H4.37101V18.1987H12.1417V15.2475ZM27.1974 15.2475H37.882V18.1987H27.1974V15.2475ZM34.968 22.1335H27.1974V25.0847H34.968V22.1335Z" fill="#F3CA30"/>
</svg>
